<?xml version="1.0" encoding="utf-8"?>
<!-- Generator: Adobe Illustrator 19.2.1, SVG Export Plug-In . SVG Version: 6.00 Build 0)  -->
<svg version="1.1" id="Laag_1" xmlns="http://www.w3.org/2000/svg" xmlns:xlink="http://www.w3.org/1999/xlink" x="0px" y="0px"
	 viewBox="0 0 265.9 148.1" style="enable-background:new 0 0 265.9 148.1;" xml:space="preserve">
<style type="text/css">
	.st0{fill:#FFFFFF;}
</style>
<g>
	<path class="st0" d="M81.1,14.1h-8v20.8h-3.8V14.1h-8.1v-3.4h19.9V14.1z"/>
	<path class="st0" d="M103.4,34.9V10.7h10.5c1.1,0,2.1,0.2,3,0.7c0.9,0.5,1.7,1,2.4,1.8c0.7,0.7,1.2,1.6,1.5,2.5
		c0.4,0.9,0.6,1.9,0.6,2.9c0,0.8-0.1,1.6-0.3,2.3c-0.2,0.7-0.5,1.4-1,2.1c-0.4,0.6-0.9,1.2-1.5,1.6c-0.6,0.5-1.2,0.8-1.9,1l5.7,9.2
		H118l-5.2-8.4h-5.6v8.4H103.4z M107.2,23.1h6.7c0.5,0,1-0.1,1.5-0.4c0.4-0.2,0.8-0.6,1.1-1c0.3-0.4,0.6-0.9,0.7-1.4
		c0.2-0.5,0.3-1.1,0.3-1.7c0-0.6-0.1-1.2-0.3-1.7s-0.5-1-0.8-1.4c-0.4-0.4-0.8-0.7-1.2-1c-0.5-0.2-0.9-0.4-1.4-0.4h-6.5V23.1z"/>
	<path class="st0" d="M153.6,31.6c1.3,0,2.3-0.2,3.2-0.7c0.8-0.5,1.5-1.1,2-2c0.5-0.8,0.9-1.7,1.1-2.8c0.2-1,0.3-2.1,0.3-3.2V10.7
		h3.8V23c0,1.7-0.2,3.2-0.6,4.7c-0.4,1.5-1,2.7-1.8,3.8c-0.8,1.1-1.9,2-3.2,2.6c-1.3,0.6-2.9,1-4.8,1c-1.9,0-3.6-0.3-4.9-1
		c-1.3-0.7-2.4-1.6-3.2-2.7c-0.8-1.1-1.4-2.4-1.8-3.9c-0.4-1.5-0.5-3-0.5-4.5V10.7h3.8V23c0,1.1,0.1,2.2,0.3,3.2
		c0.2,1,0.6,1.9,1.1,2.8c0.5,0.8,1.2,1.5,2,1.9C151.3,31.4,152.4,31.6,153.6,31.6z"/>
	<path class="st0" d="M204.7,31.5v3.4h-16.6V10.7h16.3v3.4H192V21h10.8v3.2H192v7.4H204.7z"/>
	<path class="st0" d="M56.3,102.1V73.7l-9,20h-7.9l-9-20v28.4H15.5v-54h16.2l11.6,25.4l11.7-25.4h16.1v54H56.3z"/>
	<path class="st0" d="M104,89.4c1.7,0,3.2-0.4,4.4-1.1c1.2-0.8,2.2-1.8,3-3c0.8-1.2,1.3-2.7,1.7-4.3c0.4-1.6,0.5-3.3,0.5-5.1V48.1
		h14.8v27.7c0,3.8-0.5,7.3-1.4,10.5c-1,3.3-2.5,6.1-4.5,8.5c-2,2.4-4.6,4.3-7.6,5.6c-3.1,1.4-6.7,2.1-10.8,2.1
		c-4.3,0-8-0.7-11.1-2.2c-3.1-1.4-5.6-3.4-7.6-5.8c-2-2.4-3.4-5.3-4.3-8.5c-0.9-3.2-1.4-6.6-1.4-10.2V48.1h14.8v27.7
		c0,1.8,0.2,3.5,0.5,5.1c0.4,1.6,0.9,3.1,1.7,4.3c0.8,1.2,1.7,2.2,2.9,3C100.8,89,102.3,89.4,104,89.4z"/>
	<path class="st0" d="M169.6,65.8c-1.5-0.9-3.1-1.7-4.7-2.4c-1.4-0.6-2.9-1.2-4.6-1.7c-1.7-0.5-3.4-0.8-5-0.8
		c-1.3,0-2.4,0.2-3.2,0.6c-0.8,0.4-1.2,1.1-1.2,2.1c0,0.7,0.2,1.3,0.7,1.7s1.1,0.9,2,1.3c0.9,0.4,1.9,0.7,3.2,1.1
		c1.2,0.4,2.6,0.8,4.2,1.3c2.5,0.8,4.7,1.6,6.7,2.5c2,0.9,3.7,2,5.1,3.2c1.4,1.2,2.5,2.7,3.3,4.5c0.8,1.8,1.1,3.9,1.1,6.5
		c0,3.2-0.6,6-1.8,8.2c-1.2,2.2-2.8,4-4.7,5.3c-2,1.3-4.2,2.3-6.6,2.9c-2.5,0.6-4.9,0.9-7.4,0.9c-2,0-4-0.2-6.1-0.5
		c-2.1-0.3-4.1-0.7-6.2-1.3c-2.1-0.6-4-1.2-5.9-2c-1.9-0.8-3.7-1.6-5.3-2.6l6.4-13c1.8,1.1,3.6,2.1,5.5,3c1.6,0.8,3.5,1.4,5.5,2.1
		c2.1,0.6,4.1,0.9,6.3,0.9c1.6,0,2.7-0.2,3.4-0.6c0.6-0.4,1-1,1-1.7c0-0.8-0.3-1.4-1-1.9c-0.6-0.5-1.5-1-2.6-1.4
		c-1.1-0.4-2.4-0.8-3.8-1.2c-1.4-0.4-3-0.9-4.6-1.4c-2.4-0.8-4.4-1.7-6.2-2.6c-1.7-0.9-3.1-2-4.3-3.2c-1.1-1.2-1.9-2.5-2.5-4.1
		c-0.5-1.5-0.8-3.3-0.8-5.2c0-3,0.5-5.6,1.6-7.9c1.1-2.3,2.6-4.2,4.4-5.7c1.9-1.5,4-2.7,6.4-3.5c2.4-0.8,5-1.2,7.6-1.2
		c2,0,3.9,0.2,5.8,0.6c1.9,0.4,3.7,0.9,5.4,1.4c1.7,0.6,3.4,1.2,4.9,1.9s2.9,1.3,4.1,1.9L169.6,65.8z"/>
	<path class="st0" d="M183.8,102.1v-54h14.8v54H183.8z"/>
	<path class="st0" d="M204.9,74.6c0-3.3,0.6-6.5,1.9-9.7c1.2-3.2,3.1-6.1,5.4-8.6c2.4-2.5,5.3-4.6,8.7-6.2c3.4-1.6,7.3-2.4,11.6-2.4
		c5.2,0,9.7,1.1,13.6,3.2c3.8,2.2,6.7,5,8.5,8.6l-11.3,8.1c-0.5-1.3-1.2-2.4-2-3.3c-0.8-0.9-1.8-1.5-2.8-2.1c-1-0.5-2.1-0.9-3.2-1.1
		c-1.1-0.2-2.1-0.3-3.2-0.3c-2.1,0-4,0.4-5.5,1.3c-1.5,0.8-2.8,1.9-3.8,3.3c-1,1.3-1.7,2.9-2.2,4.6c-0.5,1.7-0.7,3.4-0.7,5.1
		c0,1.9,0.3,3.7,0.8,5.4c0.6,1.7,1.4,3.2,2.4,4.6c1.1,1.3,2.4,2.4,3.9,3.2c1.5,0.8,3.3,1.2,5.2,1.2c1,0,2.1-0.1,3.1-0.3
		s2.1-0.6,3.1-1.1c1-0.5,1.9-1.2,2.7-2.1c0.8-0.8,1.4-1.9,1.9-3.1l12.1,7.2c-0.8,2-2,3.8-3.7,5.3c-1.6,1.6-3.5,2.9-5.6,4
		c-2.1,1.1-4.4,1.9-6.8,2.4c-2.4,0.6-4.8,0.8-7,0.8c-4,0-7.7-0.8-11-2.4c-3.3-1.6-6.2-3.7-8.6-6.3c-2.4-2.6-4.3-5.6-5.6-9
		C205.6,81.5,204.9,78.1,204.9,74.6z"/>
	<path class="st0" d="M16,138.9V119h3.1v19.9H16z"/>
	<path class="st0" d="M30.7,124.9v14h-3.1V119H30l11.4,14.3V119h3.2v19.9h-2.6L30.7,124.9z"/>
	<path class="st0" d="M64.7,123.7c-0.2-0.2-0.5-0.4-0.8-0.7c-0.4-0.2-0.8-0.5-1.2-0.7c-0.5-0.2-1-0.4-1.6-0.5
		c-0.6-0.1-1.2-0.2-1.8-0.2c-1.3,0-2.3,0.2-2.9,0.7c-0.6,0.5-0.9,1.2-0.9,2c0,0.5,0.1,0.9,0.3,1.2c0.2,0.3,0.5,0.6,0.9,0.8
		c0.4,0.2,0.9,0.4,1.5,0.6c0.6,0.2,1.3,0.4,2.2,0.6c1,0.2,1.9,0.5,2.7,0.8s1.5,0.7,2.1,1.1c0.6,0.4,1,1,1.3,1.6s0.5,1.4,0.5,2.3
		c0,1-0.2,1.9-0.6,2.6c-0.4,0.7-0.9,1.3-1.6,1.8s-1.4,0.8-2.3,1c-0.9,0.2-1.8,0.3-2.8,0.3c-1.5,0-3-0.2-4.4-0.7
		c-1.4-0.5-2.7-1.1-3.8-2l1.4-2.7c0.2,0.2,0.6,0.5,1.1,0.8c0.5,0.3,1,0.6,1.6,0.8s1.3,0.5,2,0.6c0.7,0.2,1.4,0.3,2.2,0.3
		c1.2,0,2.2-0.2,2.9-0.6c0.7-0.4,1-1.1,1-1.9c0-0.5-0.1-0.9-0.4-1.3c-0.3-0.3-0.6-0.6-1.1-0.9c-0.5-0.3-1-0.5-1.7-0.7
		s-1.4-0.4-2.3-0.6c-1-0.3-1.9-0.5-2.6-0.8c-0.7-0.3-1.3-0.6-1.8-1.1c-0.5-0.4-0.9-0.9-1.1-1.4s-0.4-1.2-0.4-2c0-1,0.2-1.8,0.6-2.6
		c0.4-0.8,0.9-1.4,1.5-1.9c0.6-0.5,1.4-0.9,2.3-1.2c0.9-0.3,1.8-0.4,2.9-0.4c1.3,0,2.6,0.2,3.7,0.6c1.1,0.4,2.1,1,3,1.6L64.7,123.7z
		"/>
	<path class="st0" d="M88.4,121.8h-6.6v17.1h-3.2v-17.1H72V119h16.4V121.8z"/>
	<path class="st0" d="M95,138.9V119h8.7c0.9,0,1.7,0.2,2.5,0.6c0.8,0.4,1.4,0.9,1.9,1.5c0.5,0.6,1,1.3,1.3,2.1
		c0.3,0.8,0.5,1.6,0.5,2.4c0,0.7-0.1,1.3-0.3,1.9c-0.2,0.6-0.4,1.2-0.8,1.7c-0.3,0.5-0.7,1-1.2,1.4c-0.5,0.4-1,0.7-1.6,0.9l4.7,7.6
		H107l-4.3-6.9h-4.6v6.9H95z M98.1,129.2h5.5c0.4,0,0.9-0.1,1.2-0.3c0.4-0.2,0.7-0.5,0.9-0.8c0.3-0.3,0.5-0.7,0.6-1.2
		c0.1-0.4,0.2-0.9,0.2-1.4s-0.1-1-0.3-1.4c-0.2-0.4-0.4-0.8-0.7-1.2c-0.3-0.3-0.6-0.6-1-0.8c-0.4-0.2-0.8-0.3-1.2-0.3h-5.3V129.2z"
		/>
	<path class="st0" d="M125.7,136.2c1,0,1.9-0.2,2.6-0.6c0.7-0.4,1.2-0.9,1.7-1.6c0.4-0.7,0.7-1.4,0.9-2.3s0.3-1.7,0.3-2.6V119h3.2
		v10.1c0,1.4-0.2,2.6-0.5,3.8s-0.8,2.3-1.5,3.2c-0.7,0.9-1.6,1.6-2.7,2.1c-1.1,0.5-2.4,0.8-3.9,0.8c-1.6,0-2.9-0.3-4-0.8
		c-1.1-0.6-2-1.3-2.6-2.2c-0.7-0.9-1.2-2-1.5-3.2c-0.3-1.2-0.4-2.4-0.4-3.7V119h3.1v10.1c0,0.9,0.1,1.8,0.3,2.6
		c0.2,0.8,0.5,1.6,0.9,2.3c0.4,0.7,1,1.2,1.7,1.6S124.7,136.2,125.7,136.2z"/>
	<path class="st0" d="M159.1,138.9v-14.3l-5.9,10.8h-1.7l-5.9-10.8v14.3h-3.1V119h3.4l6.6,12.2l6.6-12.2h3.4v19.9H159.1z"/>
	<path class="st0" d="M184.3,136.1v2.8h-13.6V119h13.4v2.8h-10.2v5.7h8.9v2.6h-8.9v6.1H184.3z"/>
	<path class="st0" d="M194.6,124.9v14h-3.1V119h2.5l11.4,14.3V119h3.2v19.9h-2.6L194.6,124.9z"/>
	<path class="st0" d="M231.5,121.8h-6.6v17.1h-3.2v-17.1h-6.6V119h16.4V121.8z"/>
	<path class="st0" d="M249.8,123.7c-0.2-0.2-0.5-0.4-0.8-0.7c-0.4-0.2-0.8-0.5-1.2-0.7c-0.5-0.2-1-0.4-1.6-0.5
		c-0.6-0.1-1.2-0.2-1.8-0.2c-1.3,0-2.3,0.2-2.9,0.7c-0.6,0.5-0.9,1.2-0.9,2c0,0.5,0.1,0.9,0.3,1.2c0.2,0.3,0.5,0.6,0.9,0.8
		c0.4,0.2,0.9,0.4,1.5,0.6c0.6,0.2,1.3,0.4,2.2,0.6c1,0.2,1.9,0.5,2.7,0.8s1.5,0.7,2.1,1.1c0.6,0.4,1,1,1.3,1.6s0.5,1.4,0.5,2.3
		c0,1-0.2,1.9-0.6,2.6c-0.4,0.7-0.9,1.3-1.6,1.8s-1.4,0.8-2.3,1c-0.9,0.2-1.8,0.3-2.8,0.3c-1.5,0-3-0.2-4.4-0.7
		c-1.4-0.5-2.7-1.1-3.8-2l1.4-2.7c0.2,0.2,0.6,0.5,1.1,0.8c0.5,0.3,1,0.6,1.6,0.8s1.3,0.5,2,0.6c0.7,0.2,1.4,0.3,2.2,0.3
		c1.2,0,2.2-0.2,2.9-0.6c0.7-0.4,1-1.1,1-1.9c0-0.5-0.1-0.9-0.4-1.3c-0.3-0.3-0.6-0.6-1.1-0.9c-0.5-0.3-1-0.5-1.7-0.7
		s-1.4-0.4-2.3-0.6c-1-0.3-1.9-0.5-2.6-0.8c-0.7-0.3-1.3-0.6-1.8-1.1c-0.5-0.4-0.9-0.9-1.1-1.4s-0.4-1.2-0.4-2c0-1,0.2-1.8,0.6-2.6
		c0.4-0.8,0.9-1.4,1.5-1.9c0.6-0.5,1.4-0.9,2.3-1.2c0.9-0.3,1.8-0.4,2.9-0.4c1.3,0,2.6,0.2,3.7,0.6c1.1,0.4,2.1,1,3,1.6L249.8,123.7
		z"/>
</g>
</svg>
